<svg xmlns="http://www.w3.org/2000/svg" data-name="Layer 1" viewBox="0 0 64 64"><circle cx="32" cy="32" r="27" fill="#f26522"/><path fill="#be1e2d" d="M48.75,53.16a26.94,26.94,0,0,1-33.5,0L16,50.5A9.12,9.12,0,0,1,24.79,44H39.21A9.12,9.12,0,0,1,48,50.5Z"/><path fill="#ffd2b4" d="M36,39v5.76a2,2,0,0,1-1.11,1.8h0a6.46,6.46,0,0,1-5.78,0h0A2,2,0,0,1,28,44.76V39Z"/><path fill="#ffd2b4" d="M32,15.21c9.84,0,10.5,8,10.5,10.21A.56.56,0,0,0,43,26c1.4,0,2.43.79,2.43,2.89,0,2.36-1,2.85-2.34,3a.3.3,0,0,0-.27.27c-.39,3.69-3,6.39-5.58,8.2a9.16,9.16,0,0,1-10.56,0c-2.57-1.81-5.19-4.52-5.58-8.2a.3.3,0,0,0-.27-.27c-1.31-.13-2.34-.63-2.34-3,0-2.1,1-2.86,2.38-2.89a.56.56,0,0,0,.55-.55C21.46,23.18,22.15,15.21,32,15.21Z"/><path fill="#262234" d="M36,41.08v1.5a9.16,9.16,0,0,1-8,0v-1.5a9.16,9.16,0,0,0,8,0Z" opacity=".1"/><circle cx="28.04" cy="28.15" r="1.7"/><circle cx="35.96" cy="28.15" r="1.7"/><path fill="#611c24" d="M35.87,32.53a1,1,0,0,1,1,1.25,5,5,0,0,1-9.68,0,1,1,0,0,1,1-1.25Z"/><path fill="#be1e2d" d="M34.42,36.91a5,5,0,0,1-4.84,0c.2-1.23,1.21-1.57,2.42-1.57S34.22,35.68,34.42,36.91Z"/><path fill="#fff" d="M34.87,32.53v.95a.37.37,0,0,1-.36.37h-5a.37.37,0,0,1-.36-.37v-.95Z"/><path d="M32,13.62c-8.83,0-11.31,6.71-11.31,12.72A9.56,9.56,0,0,0,21,28.47c.18.72,2.07.69,2.19,0a16.75,16.75,0,0,1,1.11-6.85A1,1,0,0,1,25.34,21c2.24.33,9.12,1.18,13.27.12a1,1,0,0,1,1.2.6,16.94,16.94,0,0,1,1.06,6.75c.11.64,2,.67,2.19,0a9.56,9.56,0,0,0,.26-2.12C43.31,20.33,40.84,13.62,32,13.62Z"/><path fill="#be1e2d" d="M43.48,22.11h0a42.22,42.22,0,0,0-23,0h0A11.72,11.72,0,0,1,32,10.17,11.72,11.72,0,0,1,43.48,22.11Z"/><path fill="#941a21" d="M32,9.12h0a3.67,3.67,0,0,1,3.67,3.67V20.1a0,0,0,0,1,0,0H28.33a0,0,0,0,1,0,0V12.79A3.67,3.67,0,0,1,32,9.12Z"/><path fill="#ffa517" d="M33.65,12.62a2.23,2.23,0,0,1-1.4-.65l-.1-.1a.2.2,0,0,0-.29,0l-.1.1a2.23,2.23,0,0,1-1.4.65.2.2,0,0,0-.19.2v.58a3.41,3.41,0,0,0,1.73,3l.1,0,.1,0a3.41,3.41,0,0,0,1.73-3v-.58A.2.2,0,0,0,33.65,12.62Z"/><path fill="#a21b25" d="M40.95,19.5A24.57,24.57,0,0,0,32,17.89a24.54,24.54,0,0,0-9,1.63c-4.62,1.83-7.68,5-7.68,8.68s3.1,6.88,7.77,8.71a9.66,9.66,0,0,1-2-4.79.29.29,0,0,0-.27-.27c-1.31-.13-2.34-.63-2.34-3,0-2.06,1-2.83,2.31-2.88a1.48,1.48,0,0,0,.76-.27A19.11,19.11,0,0,1,32,22.83a19,19,0,0,1,10.41,2.88,1.49,1.49,0,0,0,.75.27c1.34.07,2.32.84,2.32,2.88,0,2.36-1,2.86-2.34,3a.29.29,0,0,0-.27.27,9.66,9.66,0,0,1-2,4.79c4.67-1.83,7.77-5,7.77-8.71S45.59,21.34,40.95,19.5Z"/><rect width="9.31" height="2.69" x="21.37" y="51.61" fill="#ffa517" rx=".6" ry=".6"/><rect width="9.31" height="2.69" x="33.31" y="51.61" fill="#ffa517" rx=".6" ry=".6"/><path fill="#231f20" d="M36,44v.76a2,2,0,0,1-1.11,1.8,6.48,6.48,0,0,1-5.78,0A2,2,0,0,1,28,44.76V44H26v.76a4,4,0,0,0,2.22,3.58,8.39,8.39,0,0,0,7.56,0A4,4,0,0,0,38,44.76V44Z" opacity=".1"/><path fill="#a21b25" d="M17.46 47.19l.85 1.48a.47.47 0 0 0 .75.09 10.45 10.45 0 0 1 4.41-2.55.47.47 0 0 0 .29-.69L22.91 44a.48.48 0 0 0-.53-.23 10.45 10.45 0 0 0-4.85 2.8A.48.48 0 0 0 17.46 47.19zM46.54 47.19l-.85 1.48a.47.47 0 0 1-.75.09 10.45 10.45 0 0 0-4.41-2.55.47.47 0 0 1-.29-.69L41.09 44a.48.48 0 0 1 .53-.23 10.45 10.45 0 0 1 4.85 2.8A.48.48 0 0 1 46.54 47.19z"/></svg>