<svg xmlns="http://www.w3.org/2000/svg" data-name="Layer 1" viewBox="0 0 64 64"><circle cx="32" cy="32" r="27" fill="#27aae1"/><path fill="#1c3960" d="M48.75,53.16a26.94,26.94,0,0,1-33.5,0L16,50.5A9.12,9.12,0,0,1,24.79,44H39.21A9.12,9.12,0,0,1,48,50.5Z"/><path fill="#ffd2b4" d="M36,39v5.76a2,2,0,0,1-1.11,1.8h0a6.46,6.46,0,0,1-5.78,0h0A2,2,0,0,1,28,44.76V39Z"/><path fill="#ffd2b4" d="M32,15.21C43.45,15.21,42.47,26,42.47,26c1.68-.17,3,.49,3,2.86s-1,2.86-2.35,3a.29.29,0,0,0-.27.27c-.39,3.69-3,6.39-5.58,8.2a9.16,9.16,0,0,1-10.56,0c-2.57-1.81-5.19-4.52-5.58-8.2a.29.29,0,0,0-.27-.27c-1.31-.13-2.35-.63-2.35-3s1.27-3,2.94-2.86C21.47,26,20.54,15.21,32,15.21Z"/><path fill="#262234" d="M36,41.08v1.5a9.16,9.16,0,0,1-8,0v-1.5a9.16,9.16,0,0,0,8,0Z" opacity=".1"/><circle cx="28.04" cy="28.15" r="1.7"/><circle cx="35.96" cy="28.15" r="1.7"/><path fill="#611c24" d="M35.87,32.53a1,1,0,0,1,1,1.25,5,5,0,0,1-9.68,0,1,1,0,0,1,1-1.25Z"/><path fill="#be1e2d" d="M34.42,36.91a5,5,0,0,1-4.84,0c.2-1.23,1.21-1.57,2.42-1.57S34.22,35.68,34.42,36.91Z"/><path fill="#fff" d="M34.87,32.53v.95a.37.37,0,0,1-.36.37h-5a.37.37,0,0,1-.36-.37v-.95Z"/><path d="M32,13.63c-8.83,0-11.31,6.71-11.31,12.72A9.56,9.56,0,0,0,21,28.47c.18.72,2.07.69,2.19,0a16.75,16.75,0,0,1,1.11-6.85A1,1,0,0,1,25.34,21c2.24.33,9.12,1.18,13.27.12a1,1,0,0,1,1.2.6,16.94,16.94,0,0,1,1.06,6.75c.11.64,2,.67,2.19,0a9.56,9.56,0,0,0,.26-2.12C43.31,20.33,40.84,13.63,32,13.63Z"/><path fill="#262234" d="M30.16,15.85s-2-2-7.41-.93a.38.38,0,0,0-.16.68c1.22.93,3.6,3,3.06,4.39"/><path fill="#262234" d="M32.13,16s-1.39-2.46-6.84-3a.38.38,0,0,0-.35.61c.91,1.24,2.61,3.88,1.69,5.08"/><path fill="#1c3960" d="M45.25,15.6c0-3.25-5.93-5.88-13.25-5.88S18.75,12.35,18.75,15.6c0,1.22.84,2.36,2.27,3.3v2.28c0,1.38,4.91,4.47,11,4.47s11-3.08,11-4.47V18.89C44.41,18,45.25,16.82,45.25,15.6Z"/><path fill="#132539" d="M43,18.89h0a75.91,75.91,0,0,0-22,0h0v2.3l6.56.38a75.91,75.91,0,0,0,8.83,0L43,21.19Z"/><path fill="#ffa517" d="M33.29,14.61l1.12-1a.16.16,0,0,0-.09-.28l-1.47-.12a.16.16,0,0,1-.14-.1l-.57-1.36a.16.16,0,0,0-.3,0l-.57,1.36a.16.16,0,0,1-.14.1l-1.47.12a.16.16,0,0,0-.09.28l1.12,1a.16.16,0,0,1,.05.16l-.34,1.44a.16.16,0,0,0,.24.17l1.26-.77a.16.16,0,0,1,.17,0l1.26.77a.16.16,0,0,0,.24-.17l-.34-1.44A.16.16,0,0,1,33.29,14.61Z"/><path fill="#132539" d="M33.12,50.67a1,1,0,0,0,1-.72l.79-2.71H29.13l.79,2.71a1,1,0,0,0,1,.72h.29l-1.51,8.22c.39,0,.79.07,1.19.08s.77,0,1.15,0,.76,0,1.14,0h0c.4,0,.8,0,1.19-.08l-1.51-8.22Z"/><path fill="#152a4c" d="M26.18 44l1.91 6.43a.5.5 0 0 0 .85.19L32 47.24l-4-5.12zM36 42.12l-4 5.12 3.06 3.38a.5.5 0 0 0 .85-.19L37.82 44z"/><path fill="#ffa517" d="M42.09,51a2.74,2.74,0,0,1-1.72-.79l-.12-.12a.25.25,0,0,0-.35,0l-.12.12A2.74,2.74,0,0,1,38,51a.25.25,0,0,0-.23.25V52a4.18,4.18,0,0,0,2.13,3.64.25.25,0,0,0,.24,0A4.18,4.18,0,0,0,42.32,52v-.72A.25.25,0,0,0,42.09,51Z"/><path fill="#e4971f" d="M40.69,53.09l.54-.46a.08.08,0,0,0,0-.14l-.71-.06a.08.08,0,0,1-.07,0l-.27-.66a.08.08,0,0,0-.14,0l-.27.66a.08.08,0,0,1-.07,0l-.71.06a.08.08,0,0,0,0,.14l.54.46a.08.08,0,0,1,0,.08l-.16.69a.08.08,0,0,0,.12.08l.61-.37a.08.08,0,0,1,.08,0l.61.37a.08.08,0,0,0,.12-.08l-.16-.69A.08.08,0,0,1,40.69,53.09Z"/><path fill="#152a4c" d="M17.46 47.25l.85 1.48a.47.47 0 0 0 .75.09 10.45 10.45 0 0 1 4.41-2.55.47.47 0 0 0 .29-.69l-.85-1.48a.48.48 0 0 0-.53-.23 10.45 10.45 0 0 0-4.85 2.8A.48.48 0 0 0 17.46 47.25zM46.54 47.25l-.85 1.48a.47.47 0 0 1-.75.09 10.45 10.45 0 0 0-4.41-2.55.47.47 0 0 1-.29-.69l.85-1.48a.48.48 0 0 1 .53-.23 10.45 10.45 0 0 1 4.85 2.8A.48.48 0 0 1 46.54 47.25z"/></svg>